/* XPM */
static char *result[] = {
/* columns rows colors chars-per-pixel */
"32 32 9 1 ",
"  c #282831",
". c #4D3A2F",
"X c #5F4933",
"o c #78803F",
"O c #456B43",
"+ c #78803F",
"@ c #AF9340",
"# c #4A548D",
"$ c #648E95",
/* pixels */
"oooO X $$##############$$ oooooo",
"oooO   $$##############$$ oooooo",
"oooOOO $$##############$$ oooooo",
"oooooO $###############$$ O++OOO",
"oooooO $###############$$ O++O  ",
"oooOOO $$##############$$ OOOO .",
"oooO   $$##############$$      X",
"oooO . $$##############$$ .....X",
"oooO X $$##############$$ XXXX  ",
"oooO   $$##############$$ XXXX $",
"oooOOO $$##############$$$     $",
"oooooO $################$$$$$$$$",
"oooooO $#################$$$$$$#",
"oooOOO $$#######################",
"oooO   $$#######################",
"oooO . $$#######################",
"oooO X $$#######################",
"oooO   $$#######################",
"oooOOO $$#######################",
"oooooO $########################",
"oooooO $########################",
"oooOOO $$#######################",
"oooO   $$#######################",
"oooO . $$#######################",
"oooO X $$#######################",
"oooO   $$##################     ",
"oooOOO $$################## @@@@",
"oooooO $#################   @++@",
"oooooO $################# @@@++@",
"oooOOO $$################ ++++++",
"oooO   $$################ ++++++",
"oooO . $$################ ++++++"
};
