/* XPM */
static char *result[] = {
/* columns rows colors chars-per-pixel */
"32 32 9 1 ",
"  c #282831",
". c #4D3A2F",
"X c #5F4933",
"o c #656F30",
"O c #456B43",
"+ c #78803F",
"@ c #AF9340",
"# c #4A548D",
"$ c #648E95",
/* pixels */
"oooooo $$##############$$ X @+++",
"oooooo $$##############$$   @+++",
"oooooo $$##############$$ @@@+++",
"OOO++O $$###############$ @+++++",
"  O++O $$###############$ @+++++",
". OOOO $$##############$$ @@@+++",
"X      $$##############$$   @+++",
"X..... $$##############$$ . @+++",
"  XXXX $$##############$$ X @+++",
"$ XXXX $$##############$$   @+++",
"$     $$$##############$$ @@@+++",
"$$$$$$$$################$ @+++++",
"#$$$$$$#################$ @+++++",
"#######################$$ @@@+++",
"#######################$$   @+++",
"#######################$$ . @+++",
"#######################$$ X @+++",
"#######################$$   @+++",
"#######################$$ @@@+++",
"########################$ @+++++",
"########################$ @+++++",
"#######################$$ @@@+++",
"#######################$$   @+++",
"#######################$$ . @+++",
"#######################$$ X @+++",
"     ##################$$   @+++",
"@@@@ ##################$$ @@@+++",
"@++@   #################$ @+++++",
"@++@@@ #################$ @+++++",
"++++++ ################$$ @@@+++",
"++++++ ################$$   @+++",
"++++++ ################$$ . @+++"
};
