/* XPM */
static char *result[] = {
/* columns rows colors chars-per-pixel */
"32 32 8 1 ",
"  c #282831",
". c #4D3A2F",
"X c #5F4933",
"o c #456B43",
"O c #78803F",
"+ c #AF9340",
"@ c #4A548D",
"# c #648E95",
/* pixels */
"OOOOOOOOOOOOOOOOOOOOOOOOOOOOOOOO",
"OOOOOOOOOOOOOOOOOOOOOOOOOOOOOOOO",
"OOOOOOOOOOOOOOOOOOOOOOOOOOOOOOOO",
"oooOOooooooOOooooooOOooooooOOooo",
"  oOOo    oOOo    oOOo    oOOo  ",
". oooo .. oooo .. oooo .. oooo .",
"X      XX      XX      XX      X",
"X......XX......XX......XX......X",
"  XXXX    XXXX    XXXX    XXXX  ",
"# XXXX ## XXXX ## XXXX ## XXXX #",
"#      ##      ##      ##      #",
"################################",
"@######@@######@@######@@######@",
"@@@@@@@@@@@@@@@@@@@@@@@@@@@@@@@@",
"@@@@@@@@@@@@@@@@@@@@@@@@@@@@@@@@",
"@@@@@@@@@@@@@@@@@@@@@@@@@@@@@@@@",
"@@@@@@@@@@@@@@@@@@@@@@@@@@@@@@@@",
"@@@@@@@@@@@@@@@@@@@@@@@@@@@@@@@@",
"@@@@@@@@@@@@@@@@@@@@@@@@@@@@@@@@",
"@@@@@@@@@@@@@@@@@@@@@@@@@@@@@@@@",
"@@@@@@@@@@@@@@@@@@@@@@@@@@@@@@@@",
"@@@@@@@@@@@@@@@@@@@@@@@@@@@@@@@@",
"@@@@@@@@@@@@@@@@@@@@@@@@@@@@@@@@",
"@@@@@@@@@@@@@@@@@@@@@@@@@@@@@@@@",
"@@@@@@@@@@@@@@@@@@@@@@@@@@@@@@@@",
"     @@@@@@@@@@@@@@@@@@@@@@     ",
"++++ @@@@@@@@@@@@@@@@@@@@@@ ++++",
"+OO+   @@@@@@@@@@@@@@@@@@   +OO+",
"+OO+++ @@@@@@@@@@@@@@@@@@ +++OO+",
"OOOOOO @@@@@@@@@@@@@@@@@@ OOOOOO",
"OOOOOO @@@@@@@@@@@@@@@@@@ OOOOOO",
"OOOOOO @@@@@@@@@@@@@@@@@@ OOOOOO"
};
