/* XPM */
static char *result[] = {
/* columns rows colors chars-per-pixel */
"32 32 9 1 ",
"  c #282831",
". c #4D3A2F",
"X c #5F4933",
"o c #78803F",
"O c #456B43",
"+ c #456C43",
"@ c #AF9340",
"# c #4A548D",
"$ c #648E95",
/* pixels */
"oooooooooooooooooooooooooooooooo",
"oooooooooooooooooooooooooooooooo",
"oooooooooooooooooooooooooooooooo",
"OOOooOOO+++oo++++++oo+++OOOooOOO",
"  OooO    +oo+    +oo+    OooO  ",
". OOOO .. ++++ .. ++++ .. OOOO .",
"X      XX      XX      XX      X",
"X......XX......XX......XX......X",
"  XXXX    XXXX    XXXX    XXXX  ",
"$ XXXX $$ XXXX $$ XXXX $$ XXXX $",
"$      $$      $$      $$      $",
"$$$$$$$$$$$$$$$$$$$$$$$$$$$$$$$$",
"#$$$$$$##$$$$$$##$$$$$$##$$$$$$#",
"################################",
"################################",
"################################",
"################################",
"################################",
"################################",
"################################",
"################################",
"################################",
"################################",
"################################",
"################################",
"#      ##      ##      ##      #",
"# @@@@ ## @@@@ ## @@@@ ## @@@@ #",
"  @oo@    @oo@    @oo@    @oo@  ",
"@@@oo@@@@@@oo@@@@@@oo@@@@@@oo@@@",
"oooooooooooooooooooooooooooooooo",
"oooooooooooooooooooooooooooooooo",
"oooooooooooooooooooooooooooooooo"
};
