/* XPM */
static char *result[] = {
/* columns rows colors chars-per-pixel */
"32 32 10 1 ",
"  c #282831",
". c #4D3A2F",
"X c #5F4933",
"o c #78803F",
"O c #456B43",
"+ c #456C43",
"@ c #78803F",
"# c #AF9340",
"$ c #4A548D",
"% c #648E95",
/* pixels */
"oooooooooooooooooooooooooooooooo",
"oooooooooooooooooooooooooooooooo",
"oooooooooooooooooooooooooooooooo",
"ooo++++++++oo++++++ooOOOOOOooOOO",
"ooo+      +oo+    +ooO    OooO  ",
"ooo+ .... ++++ .. +OOO .. OOOO .",
"ooo+ XXXX      XX      XX      X",
"ooo+ XXXX......XX......XX......X",
"ooo+      XXXX    XXXX    XXXX  ",
"ooo+   %% XXXX %% XXXX %% XXXX %",
"ooo+++ %%      %%      %%      %",
"ooooo+ %%%%%%%%%%%%%%%%%%%%%%%%%",
"ooooo+ %%%%%%%%$$%%%%%%$$%%%%%%$",
"ooo+++ %%$$$$$$$$$$$$$$$$$$$$$$$",
"ooo+   %%$$$$$$$$$$$$$$$$$$$$$$$",
"ooo+ . %%$$$$$$$$$$$$$$$$$$$$$$$",
"ooo+ X %%$$$$$$$$$$$$$$$$$$$$$$$",
"ooo+   %%$$$$$$$$$$$$$$$$$$$$$$$",
"ooo+++ %%$$$$$$$$$$$$$$$$$$$$$$$",
"ooooo+ %$$$$$$$$$$$$$$$$$$$$$$$$",
"oooooO %$$$$$$$$$$$$$$$$$$$$$$$$",
"oooOOO %%$$$$$$$$$$$$$$$$$$$$$$$",
"oooO   %%$$$$$$$$$$$$$$$$$$$$$$$",
"oooO . %%$$$$$$$$$$$$$$$$$$$$$$$",
"oooO X %%$$$$$$$$$$$$$$$$$$$$$$$",
"oooO   %%$$$$$$$$$$$$$$$$$$     ",
"oooOOO %%$$$$$$$$$$$$$$$$$$ ####",
"oooooO %$$$$$$$$$$$$$$$$$   #@@#",
"oooooO %$$$$$$$$$$$$$$$$$ ###@@#",
"oooOOO %%$$$$$$$$$$$$$$$$ @@@@@@",
"oooO   %%$$$$$$$$$$$$$$$$ @@@@@@",
"oooO . %%$$$$$$$$$$$$$$$$ @@@@@@"
};
