/* XPM */
static char *result[] = {
/* columns rows colors chars-per-pixel */
"32 32 10 1 ",
"  c #282831",
". c #4D3A2F",
"X c #5F4933",
"o c #78803F",
"O c #456B43",
"+ c #456C43",
"@ c #78803F",
"# c #AF9340",
"$ c #4A548D",
"% c #648E95",
/* pixels */
"oooooooooooooooooooooooooooooooo",
"oooooooooooooooooooooooooooooooo",
"oooooooooooooooooooooooooooooooo",
"OOOooOOOOOOoo++++++oo++++++++ooo",
"  OooO    Ooo+    +oo+      #ooo",
". OOOO .. OO++ .. ++++ .... #ooo",
"X      XX      XX      XXXX #ooo",
"X......XX......XX......XXXX #ooo",
"  XXXX    XXXX    XXXX      #ooo",
"% XXXX %% XXXX %% XXXX %%   #ooo",
"%      %%      %%      %% ###ooo",
"%%%%%%%%%%%%%%%%%%%%%%%%% #ooooo",
"$%%%%%%$$%%%%%%$$%%%%%%%% #ooooo",
"$$$$$$$$$$$$$$$$$$$$$$$%% ###ooo",
"$$$$$$$$$$$$$$$$$$$$$$$%%   #ooo",
"$$$$$$$$$$$$$$$$$$$$$$$%% . #ooo",
"$$$$$$$$$$$$$$$$$$$$$$$%% X #ooo",
"$$$$$$$$$$$$$$$$$$$$$$$%%   #ooo",
"$$$$$$$$$$$$$$$$$$$$$$$%% ###ooo",
"$$$$$$$$$$$$$$$$$$$$$$$$% #ooooo",
"$$$$$$$$$$$$$$$$$$$$$$$$% #ooooo",
"$$$$$$$$$$$$$$$$$$$$$$$%% ###ooo",
"$$$$$$$$$$$$$$$$$$$$$$$%%   #ooo",
"$$$$$$$$$$$$$$$$$$$$$$$%% . #ooo",
"$$$$$$$$$$$$$$$$$$$$$$$%% X #ooo",
"     $$$$$$$$$$$$$$$$$$%%   #ooo",
"#### $$$$$$$$$$$$$$$$$$%% ###ooo",
"#@@#   $$$$$$$$$$$$$$$$$% #ooooo",
"#@@### $$$$$$$$$$$$$$$$$% #ooooo",
"@@@@@@ $$$$$$$$$$$$$$$$%% ###ooo",
"@@@@@@ $$$$$$$$$$$$$$$$%%   #ooo",
"@@@@@@ $$$$$$$$$$$$$$$$%% . #ooo"
};
