/* XPM */
static char *result[] = {
/* columns rows colors chars-per-pixel */
"32 32 9 1 ",
"  c #282831",
". c #4D3A2F",
"X c #5F4933",
"o c #78803F",
"O c #456B43",
"+ c #78803F",
"@ c #AF9340",
"# c #4A548D",
"$ c #648E95",
/* pixels */
"oooooo $$##############$$ X @ooo",
"oooooo $$##############$$   @ooo",
"oooooo $$##############$$ @@@ooo",
"OOO++O $$###############$ @ooooo",
"  O++O $$###############$ @ooooo",
". OOOO $$##############$$ @@@ooo",
"X      $$##############$$   @ooo",
"X..... $$##############$$ . @ooo",
"  XXXX $$##############$$ X @ooo",
"$ XXXX $$##############$$   @ooo",
"$     $$$##############$$ @@@ooo",
"$$$$$$$$################$ @ooooo",
"#$$$$$$#################$ @ooooo",
"#######################$$ @@@ooo",
"#######################$$   @ooo",
"#######################$$ . @ooo",
"#######################$$ X @ooo",
"#######################$$   @ooo",
"#######################$$ @@@ooo",
"########################$ @ooooo",
"########################$ @ooooo",
"#######################$$ @@@ooo",
"#######################$$   @ooo",
"#######################$$ . @ooo",
"#######################$$ X @ooo",
"#      ##      ##      $$ X @ooo",
"# @@@@ ## @@@@ ## @@@@ $$ X @ooo",
"  @oo@    @oo@    @oo@      @ooo",
"@@@oo@@@@@@oo@@@@@@oo@@@@@@@@ooo",
"oooooooooooooooooooooooooooooooo",
"oooooooooooooooooooooooooooooooo",
"oooooooooooooooooooooooooooooooo"
};
