/* XPM */
static char *result[] = {
/* columns rows colors chars-per-pixel */
"32 32 8 1 ",
"  c #282831",
". c #4D3A2F",
"X c #5F4933",
"o c #78803F",
"O c #456B43",
"+ c #AF9340",
"@ c #4A548D",
"# c #648E95",
/* pixels */
"oooO X ##@@@@@@@@@@@@@@## X +ooo",
"oooO   ##@@@@@@@@@@@@@@##   +ooo",
"oooOOO ##@@@@@@@@@@@@@@## +++ooo",
"oooooO #@@@@@@@@@@@@@@@@# +ooooo",
"oooooO #@@@@@@@@@@@@@@@@# +ooooo",
"oooOOO ##@@@@@@@@@@@@@@## +++ooo",
"oooO   ##@@@@@@@@@@@@@@##   +ooo",
"oooO . ##@@@@@@@@@@@@@@## . +ooo",
"oooO X ##@@@@@@@@@@@@@@## X +ooo",
"oooO   ##@@@@@@@@@@@@@@##   +ooo",
"oooOOO ##@@@@@@@@@@@@@@## +++ooo",
"oooooO #@@@@@@@@@@@@@@@@# +ooooo",
"oooooO #@@@@@@@@@@@@@@@@# +ooooo",
"oooOOO ##@@@@@@@@@@@@@@## +++ooo",
"oooO   ##@@@@@@@@@@@@@@##   +ooo",
"oooO . ##@@@@@@@@@@@@@@## . +ooo",
"oooO X ##@@@@@@@@@@@@@@## X +ooo",
"oooO   ##@@@@@@@@@@@@@@##   +ooo",
"oooOOO ##@@@@@@@@@@@@@@## +++ooo",
"oooooO #@@@@@@@@@@@@@@@@# +ooooo",
"oooooO #@@@@@@@@@@@@@@@@# +ooooo",
"oooOOO ##@@@@@@@@@@@@@@## +++ooo",
"oooO   ##@@@@@@@@@@@@@@##   +ooo",
"oooO . ##@@@@@@@@@@@@@@## . +ooo",
"oooO X ##@@@@@@@@@@@@@@## X +ooo",
"oooO   ##@@@@@@@@@@@@@@##   +ooo",
"oooOOO ##@@@@@@@@@@@@@@## +++ooo",
"oooooO #@@@@@@@@@@@@@@@@# +ooooo",
"oooooO #@@@@@@@@@@@@@@@@# +ooooo",
"oooOOO ##@@@@@@@@@@@@@@## +++ooo",
"oooO   ##@@@@@@@@@@@@@@##   +ooo",
"oooO . ##@@@@@@@@@@@@@@## . +ooo"
};
