/* XPM */
static char *_6cbc2cdec8e42eddc7f2c9079ffe8b3mmIuenkfFYGG6hwh[] = {
/* columns rows colors chars-per-pixel */
"32 32 216 2 ",
"   c #78803F",
".  c #2F2F3B",
"X  c #30303C",
"o  c #3F3A3F",
"O  c #403A3F",
"+  c #403B3F",
"@  c #493F3F",
"#  c #4A3F3E",
"$  c #4A403E",
"%  c #4B403E",
"&  c #51423C",
"*  c #51433E",
"=  c #51443E",
"-  c #52443E",
";  c #54443D",
":  c #54453E",
">  c #56473F",
",  c #57473F",
"<  c #58453B",
"1  c #5A473C",
"2  c #5B473C",
"3  c #5D493D",
"4  c #5F4C3E",
"5  c #604B3D",
"6  c #614C3D",
"7  c #634D3E",
"8  c #634E3E",
"9  c #634F3F",
"0  c #644E3E",
"q  c #644F3E",
"w  c #654F3E",
"e  c #664F3E",
"r  c #67503E",
"t  c #66503F",
"y  c #67513F",
"u  c #68523F",
"i  c #69523F",
"p  c #69533F",
"a  c #6A533F",
"s  c #373741",
"d  c #373742",
"f  c #393843",
"g  c #3C3840",
"h  c #3A3A45",
"j  c #3E3C44",
"k  c #3C3C46",
"l  c #3D3C46",
"z  c #3D3D47",
"x  c #3E3D47",
"c  c #3F3E48",
"v  c #423C41",
"b  c #463E40",
"n  c #473F40",
"m  c #423F47",
"M  c #483F40",
"N  c #483F41",
"B  c #403F49",
"V  c #434047",
"C  c #474144",
"Z  c #484040",
"A  c #484041",
"S  c #4F4541",
"D  c #41414A",
"F  c #42424B",
"G  c #49464C",
"H  c #514641",
"J  c #524741",
"K  c #4D4A51",
"L  c #4D4C54",
"P  c #504D53",
"I  c #504E54",
"U  c #525159",
"Y  c #535159",
"T  c #545259",
"R  c #55535B",
"E  c #57555C",
"W  c #615041",
"Q  c #6B5440",
"!  c #6C5440",
"~  c #6C5540",
"^  c #6D5540",
"/  c #6D5641",
"(  c #6F5741",
")  c #6E5D45",
"_  c #705941",
"`  c #715941",
"'  c #725A41",
"]  c #735A42",
"[  c #745B42",
"{  c #746146",
"}  c #5B5960",
"|  c #5B5A60",
" . c #5D5B62",
".. c #5F5D63",
"X. c #615F65",
"o. c #626066",
"O. c #636167",
"+. c #636267",
"@. c #646268",
"#. c #666369",
"$. c #666469",
"%. c #66646A",
"&. c #67656A",
"*. c #68656B",
"=. c #69676C",
"-. c #69676D",
";. c #6A676D",
":. c #6A686C",
">. c #6A686D",
",. c #6B686D",
"<. c #6A696E",
"1. c #6B696E",
"2. c #6C6A6E",
"3. c #6C6A6F",
"4. c #6D6A6F",
"5. c #6D6B6F",
"6. c #6D6B70",
"7. c #6E6B70",
"8. c #6F6C71",
"9. c #6F6D71",
"0. c #706D72",
"q. c #716E72",
"w. c #726F73",
"e. c #737073",
"r. c #727074",
"t. c #737074",
"y. c #747175",
"u. c #747275",
"i. c #757275",
"p. c #767377",
"a. c #777477",
"s. c #777478",
"d. c #777578",
"f. c #787578",
"g. c #787579",
"h. c #797579",
"j. c #79767A",
"k. c #7B787A",
"l. c #7B787B",
"z. c #7C797C",
"x. c #7D797D",
"c. c #7D7A7C",
"v. c #7D7A7D",
"b. c #7E7A7D",
"n. c #7F7B7E",
"m. c #7E7C7E",
"M. c #7F7C7E",
"N. c #7F7C7F",
"B. c #986A44",
"V. c #A57144",
"C. c #807C7F",
"Z. c #807D7F",
"A. c #B88348",
"S. c #C88C49",
"D. c #817D80",
"F. c #817E80",
"G. c #827E80",
"H. c #827F81",
"J. c #837F81",
"K. c #848082",
"L. c #858183",
"P. c #858283",
"I. c #868384",
"U. c #878486",
"Y. c #888485",
"T. c #888486",
"R. c #898586",
"E. c #898687",
"W. c #8A8687",
"Q. c #8B8788",
"!. c #8C8789",
"~. c #8C8889",
"^. c #8C8989",
"/. c #8D8989",
"(. c #8D888A",
"). c #8D898A",
"_. c #8E8A8A",
"`. c #8E8A8B",
"'. c #8E8B8B",
"]. c #8F8B8B",
"[. c #8F8B8C",
"{. c #908C8C",
"}. c #918D8D",
"|. c #938E8E",
" X c #938F8F",
".X c #949090",
"XX c #969192",
"oX c #969292",
"OX c #979292",
"+X c #979392",
"@X c #989393",
"#X c #999394",
"$X c #999594",
"%X c #9A9695",
"&X c #9D9897",
"*X c #9F9A99",
"=X c #A19B9A",
"-X c #A19B9B",
";X c #A7A19F",
":X c #A8A2A0",
">X c #A8A3A1",
",X c #ABA5A3",
"<X c #B3ADAA",
"1X c #B4AEAB",
"2X c #BAB4B0",
"3X c #BBB4B0",
"4X c #BCB6B2",
"5X c #BDB6B2",
"6X c #BEB7B3",
"7X c #BFB8B4",
"8X c #C0B9B5",
"9X c #C1BAB6",
"0X c #C4BCB8",
"qX c #CAC2BD",
"wX c #CDC5BF",
"eX c #D1CAC3",
/* pixels */
"                                                                ",
"                                                                ",
"                                                                ",
"                                                                ",
"                                                                ",
"          h z z c c z z d k c c z z z d z z z z B D z           ",
"          n.,X>X>X>X:X:X#.-X>X>X>X>X-X#.;X>X>X>X3XwX@X          ",
"        X {.0X8X8X8X7X7X*X4X8X7X8X8X4X*X7X8X8X8X8XqX-X.         ",
"    z n.+./.8X6X6X7X6X6X*X2X6X7X6X4X3X*X6X7X6X6X4X8X!.q.#XB     ",
"    c <XP.t.*X$X$X$X$X$Xl.+X$X$X$X$X+Xl.$X$X$X$X$X*Xu.Q.eXD     ",
"  L L <XK.o.F.N.N.N.F.n.,.z.n.F.N.F.n.,.N.Z.N.N.F.Z.X.F.<XY R   ",
"  h.=.+XQ.t.n.n.n.s.6.n.z.n.n.n.z.n.z.n.n.3.s.n.n.n.u./.+Xh.{.  ",
"  h.%.n.Q././.Q.Q.P.e./.Q.Y.P.Y.I.I.Y././.q.P./././././.z.=.n.  ",
"  q.q.3.u.e.,.t.t.t.e.e.3.V C j z C B 6.w.q.t.u.w.,.w.u.6.t.q.  ",
"  X. X X X[.e.[. X X[. XI.C 6 o O 5 C P. X X[. X[.w./. X X XX.  ",
"  Y u.t.q.q.,.t.q.Y L I K b 4 o o 5 M K I I Y w.t.,.q.t.q.u.Y   ",
"  ..[././.]./.]./.G < 1 1 4 4 o o 5 4 1 1 < G /./.[./.]./.]...  ",
"o.E N.l.l.l.s.%.o.m 5 Q 6 p 6 o o q i 6 Q 5 m @.%.a.h.n.n.c.E o.",
"$X} K.,.K.K.t.o - : Q _ i [ i o j Q [ i _ r ; & O u.P.F.6.F.} #X",
"+X} I.9.I.I.s.@ q q 6 4 : W t o O 6 W : 5 q q q Z h.P.P.6.P.} +X",
".X,.s.s.h.h.,.@ a _ i H { ) % + O # ) { J p _ / @ =.s.a.h.h.:..X",
"/.[.]. X{.|.N.C q r i J S.A.% o O % A.S.J p t q C n. X X X/. X/.",
"q.e.e.9.6.w.#.M / / i H V.B.# O O % B.V.H i / p @ @.e.3.q.q.q.q.",
"[./. XP.u. XN.M / _ r : # = : O O , % % , t _ / C N. Xa.P.]. X[.",
"s.a.s.q.3.s.,.C a [ q a r [ i o O a [ r ! q _ a @ &.s.,.t.s.s.s.",
"Y.Y.Y.Y.Y.Q.s.@ / / i _ i _ i o O i _ q _ i ` / C s.Q.Y.Y.Y.Y.Y.",
"F.N.F.F.F.F.t.v = = - = - = - j g - = - - - = = v t.F.Z.F.F.F.K.",
",.n.n.z.n.n.9.s                                 s 9.n.c.n.l.n.=.",
"9./././.Q./.l.f                                 f l././.Q.Q./.9.",
"#.%.%.%.%.%...                                     .=.%.%.%.%.+.",
"                                                                ",
"                                                                "
};
