/* XPM */
static char *_f9f07ca912c40a7bef7ea2563cf41afuSWobbAfFHd9vqwy[] = {
/* columns rows colors chars-per-pixel */
"32 32 117 2 ",
"   c #78803F",
".  c #2B2C38",
"X  c #2C2C38",
"o  c #2D2D39",
"O  c #2E2E3A",
"+  c #2E2F3A",
"@  c #30303C",
"#  c #34343F",
"$  c #343540",
"%  c #383843",
"&  c #383B42",
"*  c #393944",
"=  c #3B3B45",
"-  c #3C3C46",
";  c #3D3E46",
":  c #3D3F47",
">  c #3E3E48",
",  c #3F3E48",
"<  c #403F49",
"1  c #404049",
"2  c #42424B",
"3  c #43434C",
"4  c #55535B",
"5  c #47614B",
"6  c #48644C",
"7  c #49644C",
"8  c #49644D",
"9  c #4B674E",
"0  c #527653",
"q  c #567E55",
"w  c #605D64",
"e  c #615F65",
"r  c #625F65",
"t  c #636167",
"y  c #656168",
"u  c #68666B",
"i  c #69676C",
"p  c #6A676C",
"a  c #6A676D",
"s  c #6B696E",
"d  c #6C6A6E",
"f  c #6E6C70",
"g  c #6F6D71",
"h  c #706E72",
"j  c #716E72",
"k  c #716F73",
"l  c #726F73",
"z  c #737074",
"x  c #777477",
"c  c #787478",
"v  c #787578",
"b  c #787579",
"n  c #797579",
"m  c #797679",
"M  c #7A777A",
"N  c #7B787B",
"B  c #7C797B",
"V  c #7C797C",
"C  c #7D7A7D",
"Z  c #7E7B7D",
"A  c #7E7B7E",
"S  c #807D7F",
"D  c #817D7F",
"F  c #578056",
"G  c #578156",
"H  c #817E80",
"J  c #838082",
"K  c #848082",
"L  c #848183",
"P  c #858183",
"I  c #858283",
"U  c #868384",
"Y  c #878485",
"T  c #888485",
"R  c #888586",
"E  c #898586",
"W  c #898687",
"Q  c #8A8687",
"!  c #8B8688",
"~  c #8A8788",
"^  c #8B8788",
"/  c #8B8888",
"(  c #8C8889",
")  c #8C8989",
"_  c #8D8989",
"`  c #8D898A",
"'  c #8D8A8A",
"]  c #8F8B8B",
"[  c #8F8B8C",
"{  c #8F8C8C",
"}  c #908C8C",
"|  c #918D8D",
" . c #938F8F",
".. c #948F90",
"X. c #9A9595",
"o. c #9F9A99",
"O. c #ABA5A3",
"+. c #ACA7A4",
"@. c #ADA7A4",
"#. c #AEA8A6",
"$. c #B1ABA9",
"%. c #B4ADAA",
"&. c #B9B2AF",
"*. c #B9B3AF",
"=. c #BEB7B3",
"-. c #C3BBB7",
";. c #C2BCB7",
":. c #C3BCB7",
">. c #C8C0BB",
",. c #CAC2BD",
"<. c #CFC8C1",
"1. c #D0C8C2",
"2. c #D1C9C3",
"3. c #E2DAD1",
"4. c #E3DAD2",
"5. c #EBE2D8",
"6. c #ECE3D9",
/* pixels */
"                                                                ",
"                                                                ",
"                                                                ",
"                                                                ",
"                                                                ",
"                                                                ",
"                                                                ",
"                  $ @ @ o o o o o o o o . o $                   ",
"                  % 4 t r r r r t u k z z r *                   ",
"                  , ..=.*.*.*.*.*.<.4.4.6.%.1                   ",
"                  , X.>.:.:.:.:.-.,.1.1.6.=.3                   ",
"                  , ! $.#.#.#.#.#.O.O.+.-.o.1                   ",
"                  - v | ' ' ' / ' ] | ' | b -                   ",
"                  - v I d s s s s S Q k I x -                   ",
"                  - b / b b v x v Y ' b Q v -                   ",
"                  - x | Q Q ' } / Q Q Q | v -                   ",
"              G 7 - b I d u B ! k p s s I b - 7 G               ",
"              G 7 - c ^ B N T } Z b b B ^ v - 7 G               ",
"              F 7 - v } Q ' ! Q ' ' Q Q | v - 7 G               ",
"              F 9 - b I d Q S k ! Z u u I b : 7 G               ",
"              F 7 - N } I } ! H | Q S D } B : 7 G               ",
"              F 7 - y N b v v v v b v M B y = 7 G               ",
"              F 9 & % : : : - - - - : - - - & 9 G               ",
"              F 0 9 7 7 7 7 7 7 7 7 7 7 7 7 9 0 q               ",
"                q G G G G G G G G G G G G G G q                 ",
"                                                                ",
"                                                                ",
"                                                                ",
"                                                                ",
"                                                                ",
"                                                                ",
"                                                                "
};
