/* XPM */
static char *_ba4a8c5784a4fd8c46cac7416f7a91dVJRU5BmqPcN8wOR4[] = {
/* columns rows colors chars-per-pixel */
"32 32 171 2 ",
"   c #78803F",
".  c #2F2F3B",
"X  c #30303C",
"o  c #50423F",
"O  c #373640",
"+  c #373741",
"@  c #373742",
"#  c #383640",
"$  c #383740",
"%  c #3B3840",
"&  c #393843",
"*  c #3A3A45",
"=  c #3C3C46",
"-  c #3D3C46",
";  c #3D3C47",
":  c #3D3D47",
">  c #3E3D47",
",  c #3F3E48",
"<  c #3F3F48",
"1  c #413B40",
"2  c #413C40",
"3  c #423D40",
"4  c #423C41",
"5  c #433E41",
"6  c #423D42",
"7  c #473F41",
"8  c #403F49",
"9  c #484042",
"0  c #494042",
"q  c #4A4142",
"w  c #4C4141",
"e  c #4D4241",
"r  c #4F4341",
"t  c #41414A",
"y  c #42424B",
"u  c #46454E",
"i  c #524441",
"p  c #504843",
"a  c #4B4A53",
"s  c #4D4C54",
"d  c #4E4D55",
"f  c #4F4E56",
"g  c #525159",
"h  c #535159",
"j  c #54525A",
"k  c #55535B",
"l  c #57555C",
"z  c #6A5442",
"x  c #6B5442",
"c  c #6B5542",
"v  c #5B5960",
"b  c #5B5A60",
"n  c #5D5B62",
"m  c #5F5D63",
"M  c #615F65",
"N  c #626066",
"B  c #636167",
"V  c #646268",
"C  c #666369",
"Z  c #666469",
"A  c #66646A",
"S  c #67656A",
"D  c #68656B",
"F  c #69676C",
"G  c #69676D",
"H  c #6A676D",
"J  c #6A686C",
"K  c #6A686D",
"L  c #6B686D",
"P  c #6A696E",
"I  c #6B696E",
"U  c #6C6A6E",
"Y  c #6C6A6F",
"T  c #6D6A6F",
"R  c #6D6B6F",
"E  c #6D6B70",
"W  c #6E6B70",
"Q  c #6F6C71",
"!  c #6F6D71",
"~  c #706D72",
"^  c #716E72",
"/  c #726F73",
"(  c #737073",
")  c #727074",
"_  c #737074",
"`  c #747175",
"'  c #747275",
"]  c #757275",
"[  c #767377",
"{  c #777477",
"}  c #777478",
"|  c #777578",
" . c #787578",
".. c #787579",
"X. c #797579",
"o. c #79767A",
"O. c #7B787A",
"+. c #7B787B",
"@. c #7C797C",
"#. c #7D797D",
"$. c #7D7A7C",
"%. c #7D7A7D",
"&. c #7E7A7D",
"*. c #7F7B7E",
"=. c #7E7C7E",
"-. c #7F7C7E",
";. c #7F7C7F",
":. c #A26F44",
">. c #A97E48",
",. c #807C7F",
"<. c #807D7F",
"1. c #817D80",
"2. c #817E80",
"3. c #827E80",
"4. c #827F81",
"5. c #837F81",
"6. c #848082",
"7. c #858183",
"8. c #858283",
"9. c #868384",
"0. c #888485",
"q. c #898586",
"w. c #898687",
"e. c #8A8687",
"r. c #8B8788",
"t. c #8C8789",
"y. c #8C8889",
"u. c #8C8989",
"i. c #8D8989",
"p. c #8D888A",
"a. c #8D898A",
"s. c #8E8A8A",
"d. c #8E8A8B",
"f. c #8E8B8B",
"g. c #8F8B8B",
"h. c #8F8B8C",
"j. c #908C8C",
"k. c #918D8D",
"l. c #938E8E",
"z. c #938F8F",
"x. c #949090",
"c. c #969192",
"v. c #969292",
"b. c #979292",
"n. c #979392",
"m. c #989393",
"M. c #999394",
"N. c #999594",
"B. c #9A9695",
"V. c #9D9897",
"C. c #9F9A99",
"Z. c #A19B9A",
"A. c #A19B9B",
"S. c #A7A19F",
"D. c #A8A2A0",
"F. c #A8A3A1",
"G. c #ABA5A3",
"H. c #B3ADAA",
"J. c #B4AEAB",
"K. c #BAB4B0",
"L. c #BBB4B0",
"P. c #BCB6B2",
"I. c #BDB6B2",
"U. c #BEB7B3",
"Y. c #BFB8B4",
"T. c #C0B9B5",
"R. c #C1BAB6",
"E. c #C4BCB8",
"W. c #CAC2BD",
"Q. c #CDC5BF",
"!. c #D1CAC3",
/* pixels */
"                                                                ",
"                                                                ",
"                                                                ",
"                                                                ",
"                                                                ",
"          * : : : : : : @ - , , : : : @ : : : : 8 t :           ",
"          *.G.F.F.F.F.S.C A.F.F.F.F.A.C S.F.F.F.L.Q.m.          ",
"        X j.E.T.T.T.T.Y.C.P.T.Y.T.T.P.C.Y.T.T.T.T.W.A..         ",
"    : *.B i.T.U.U.U.U.P.C.K.P.U.L.Y.L.C.P.U.U.U.P.T.t.( m.,     ",
"    , H.8._ C.B.B.B.B.B.@.n.B.B.B.B.n.@.B.B.B.B.B.C.' r.!.t     ",
"  s s H.6.N 2.;.<.<.;.*.L @.,.,.<.<.@.L *.;.<.<.,.,.N 2.J.h k   ",
"  X.F n.r._ *.*.*.| L *.@.*.*.*.@.*.@.*.;.L | *.*.*.' i.n.X.i.  ",
"  X.A *.r.i.i.r.r.8.( r.r.q.8.8.9.8.9.i.i._ 8.i.r.i.i.i.*.F @.  ",
"  ^ ^ Y ' ( L _ _ _ _ _ E , - : : : , E _ ^ _ _ _ L / _ E _ ^   ",
"  M z.z.z.h.( h.z.z.h.z.8.:         ; 8.z.z.h.z.h._ h.z.z.z.M   ",
"  h ' _ ^ ^ L _ ^ h s f a @         @ a s s h / _ L ^ _ ^ ' h   ",
"  m z.i.i.f.i.f.i.u                         u i.h.i.i.i.f.f.m   ",
"N l @.+.@.+.{ A N ,                         < N A X.+.@.@.*.l N ",
"m.v 2.Y 6.6._ - i X                         @ o 2 _ 6.6.E 2.v M.",
"n.v 0.R 8.0.| w i p %                     + r r w | 9.9.E 8.v n.",
"n.L { | X.X.L 9 r >.5                     5 >.w 7 L | { X.{ F z.",
"i.h.z.h.i.z.;.w w :.5                     5 :.r w *.z.z.h.z.z.i.",
"^ ^ ^ ! E / A 7 r 7 @                     @ 7 r 9 A ( Y ! ^ ^ ^ ",
"z.i.z.8.[ z.<.7 x 5                         1 z 9 ;.z.{ 8.z.i.z.",
"' ' ' / Y [ F w z 2                         5 c 9 F X.Y ( ' | ' ",
"q.q.q.q.q.r.o.7 x 5                         2 z w | q.q.q.q.q.q.",
"2.2.2.,.2.2._ 6 i %                         % i : ( 2.,.1.2.2.2.",
"L *.*.@.*.*.! @                                 @ ! *.@.*.*.*.F ",
"! i.i.i.r.t.X.*                                 * X.i.i.r.i.r.! ",
"C A A A A F n                                     n F A C A A C ",
"                                                                ",
"                                                                "
};
