/* XPM */
static char *result[] = {
/* columns rows colors chars-per-pixel */
"32 32 13 1 ",
"  c #353535",
". c gray29",
"X c gray33",
"o c #615C7C",
"O c #979799",
"+ c #BDA0B8",
"@ c #EDB2E0",
"# c #C9C9CB",
"$ c #D9D9DD",
"% c #FFCDEC",
"& c #EBEBED",
"* c white",
"= c None",
/* pixels */
"================================",
"==========         =============",
"========  ..XXXXX..  ===========",
"======= .XXoooooooXX. ==========",
"========  .XXXoooooXX. =========",
"=========   ..XoooooXX. ========",
"========= ++XoooooooX++ ========",
"=======   +@@@%%%%%@@@+   ======",
"=====  ...XX@%%%%%%%@XX...  ====",
"==== ...XXoooooooooooooXX... ===",
"=== ..XXXoooooooooooooooXXX.. ==",
"====  ..XXXoooooooooooXXX..  ===",
"======    ..XXXXXXXXX..    =====",
"=======O&*             *&O======",
"=======O&***************&O======",
"=======O&***************&O======",
"=======O&***************&O======",
"=======O&***************&O======",
"=======O&***************&O======",
"=======O&&*************&&O======",
"=======O$&*************&$O======",
"=======O#&&***********&&#O======",
"========O$&***********&$O=======",
"====OOOOO#$&*********&$#O=======",
"===O#$&&OO#$&*******&$#O========",
"==OOOO#&***********&$##O========",
"======O#$&&*****&&$$##O=========",
"=======O##$$&&&&$$###O==========",
"========OO#########OO===========",
"==========OOOOOOOOO=============",
"================================",
"================================"
};
