/* XPM */
static char *_c0c06a60de24b0bcbd6a18ac7e43aa32RLIxemL0AoOXwah[] = {
/* columns rows colors chars-per-pixel */
"32 32 8 1 ",
"  c #604B3D",
". c #353540",
"X c #735B42",
"o c #557D55",
"O c #78803F",
"+ c #BDA351",
"@ c #5C699F",
"# c #769FA6",
/* pixels */
"OOOOOOOOOOOOOOOOOOOOOOOOOOOOOOOO",
"OOOOOOOOOOOOOOOOOOOOOOOOOOOOOOOO",
"OOOOOOOOOOOOOOOOOOOOOOOOOOOOOOOO",
"OOOooooooooOOooooooOOooooooooOOO",
"OOOo......oOOo....oOOo......+OOO",
"OOOo.    .oooo.  .oooo.    .+OOO",
"OOOo.XXXX......XX......XXXX.+OOO",
"OOOo.XXXX      XX      XXXX.+OOO",
"OOOo......XXXX....XXXX......+OOO",
"OOOo...##.XXXX.##.XXXX.##...+OOO",
"OOOooo.##......##......##.+++OOO",
"OOOOOo.##################.+OOOOO",
"OOOOOo.########@@########.+OOOOO",
"OOOooo.##@@@@@@@@@@@@@@##.+++OOO",
"OOOo...##@@@@@@@@@@@@@@##...+OOO",
"OOOo. .##@@@@@@@@@@@@@@##. .+OOO",
"OOOo.X.##@@@@@@@@@@@@@@##.X.+OOO",
"OOOo...##@@@@@@@@@@@@@@##...+OOO",
"OOOooo.##@@@@@@@@@@@@@@##.+++OOO",
"OOOOOo.#@@@@@@@@@@@@@@@@#.+OOOOO",
"OOOOOo.#@@@@@@@@@@@@@@@@#.+OOOOO",
"OOOooo.##@@@@@@@@@@@@@@##.+++OOO",
"OOOo...##@@@@@@@@@@@@@@##...+OOO",
"OOOo. .##@@@@@@@@@@@@@@##. .+OOO",
"OOOo.X.##@@@@@@@@@@@@@@##.X.+OOO",
"OOOo.X.##......@@......##.X.+OOO",
"OOOo.X.##.++++.@@.++++.##.X.+OOO",
"OOOo......+OO+....+OO+......+OOO",
"OOO++++++++OO++++++OO++++++++OOO",
"OOOOOOOOOOOOOOOOOOOOOOOOOOOOOOOO",
"OOOOOOOOOOOOOOOOOOOOOOOOOOOOOOOO",
"OOOOOOOOOOOOOOOOOOOOOOOOOOOOOOOO"
};
